<svg width="1330" height="282" viewBox="0 0 1330 282" fill="none" xmlns="http://www.w3.org/2000/svg">
<path fill-rule="evenodd" clip-rule="evenodd" d="M93.3215 45.3275C62.0255 45.3275 23.9509 38.0497 8.34218 56.3361C3.64007 61.8452 0 68.891 0 78.6569V217.306C0 233.863 15.7795 246.798 38.6438 246.653C61.2987 246.51 83.994 246.636 106.653 246.636C95.0676 229.334 88.1163 234.637 63.9919 234.637C52.0252 234.637 20.3482 237.938 17.331 226.638H105.32C102.128 221.871 97.7764 219.327 94.433 214.861C76.5283 190.941 72.8572 155.465 82.4666 126.461C87.2277 112.09 91.6127 110.386 93.3215 103.987C93.1177 103.891 92.7379 103.629 92.6612 103.843L10.6651 103.987C10.6651 50.7508 9.97455 55.9472 86.6559 55.993C109.264 56.0066 112.407 56.6763 120.446 40.4557C138.416 4.19488 117.561 10.6655 202.641 10.6655C214.877 10.6655 218.773 30.7533 223.489 40.478C231.107 56.191 236.557 55.9986 258.634 55.993C274.334 55.9888 294.054 54.9305 309.26 56.0273C335.901 57.9485 333.292 81.5441 333.292 99.9874C333.292 103.059 332.364 103.987 329.292 103.987H282.631C269.663 103.987 262.068 102.654 249.302 102.654C250.51 107.176 252.79 108.83 255.071 112.882C270.624 140.507 269.204 185.533 249.516 212.187C246.412 216.389 242.431 220.297 239.97 223.972H329.292C325.774 237.148 299.541 233.304 279.965 233.304C270.661 233.304 259.591 232.734 250.531 233.2C243.816 233.545 244.232 234.533 241.258 238.592C238.842 241.891 236.81 243.391 234.637 246.636C258.889 246.636 281.086 245.196 306.66 245.334C330.493 245.463 343.957 232.794 343.957 209.307C343.957 189.301 344.652 91.8142 342.501 73.4464C341.445 64.4228 335.534 56.5436 329.541 51.744C308.983 35.2793 245.969 50.7579 236.143 41.1557C228.055 33.2519 225.417 0 206.641 0H139.982C119.154 0 117.393 24.765 110.025 38.0342C106.788 43.8645 101.686 45.3275 93.3215 45.3275Z" fill="white"/>
<path fill-rule="evenodd" clip-rule="evenodd" d="M601.258 161.313H630.587V90.6554C634.808 93.4813 657.751 127.663 662.039 133.861C664.505 137.424 665.811 138.808 668.196 142.369C671.239 146.916 678.672 156.66 679.915 161.313C685.691 161.313 691.483 161.269 697.257 161.324C703.618 161.384 711.911 163.271 711.911 157.313V46.6609C711.911 39.987 700.55 42.6614 682.581 42.6614V114.652C677.368 111.161 644.969 62.0141 638.022 52.5577C635.364 48.9384 633.123 47.1647 631.921 42.6614H601.258V161.313Z" fill="white"/>
<path fill-rule="evenodd" clip-rule="evenodd" d="M117.318 154.647C117.318 164.468 118.467 170.338 122.222 179.074C134.332 207.253 178.455 224.768 208.333 195.001C246.948 156.531 213.343 101.32 177.311 101.32C157.995 101.32 147.206 102.427 132.277 117.612C124.377 125.649 117.318 139.078 117.318 154.647Z" fill="white"/>
<path fill-rule="evenodd" clip-rule="evenodd" d="M1213.18 101.32V161.313H1242.51V114.652H1286.51V161.313H1313.17C1316.36 161.313 1316.92 162.783 1317.17 152.087L1316.67 46.5467C1316.37 44.7696 1317.66 42.6614 1313.17 42.6614H1286.51V87.9889H1242.51V42.6614C1207.74 42.6614 1211.58 39.9337 1211.8 54.6142L1213.18 101.32Z" fill="white"/>
<path fill-rule="evenodd" clip-rule="evenodd" d="M970.545 161.313H1055.87V137.316H999.874V114.652L1041.83 114.443C1048.28 113.279 1046.54 118.189 1046.54 89.3219H1003.87C998.186 89.3219 999.874 84.2056 999.874 71.9909C999.874 64.4084 1010.53 70.0546 1018.14 68.9971L1054.53 67.9914V42.6614H970.545V161.313Z" fill="white"/>
<path fill-rule="evenodd" clip-rule="evenodd" d="M745.24 161.313H829.229V137.316H774.569V113.319H821.23V87.9889H774.569V67.9914H827.896V42.6614H745.24V161.313Z" fill="white"/>
<path fill-rule="evenodd" clip-rule="evenodd" d="M1074.53 101.32C1074.53 135.971 1099.75 162.646 1129.19 162.646C1146.8 162.646 1153.85 163.431 1169.15 154.61C1175.8 150.776 1185.74 143.896 1187.85 135.983C1184.13 133.49 1181.08 131.947 1177.36 129.143C1173.49 126.227 1170.46 123.958 1166.52 121.318C1145.92 152.087 1103.86 137.964 1103.86 105.32C1103.86 93.6575 1104.4 86.8154 1113.48 77.6115C1124.89 66.042 1143.83 65.2373 1155.64 72.209C1160.15 74.8774 1162.42 78.5779 1166.52 81.323C1174.97 79.0662 1179.4 70.2482 1187.85 67.9915C1184.75 56.3679 1160.11 41.328 1143.86 41.328C1121.99 41.328 1109.07 42.0975 1091.52 59.647C1081.65 69.5154 1074.53 82.1919 1074.53 101.32Z" fill="white"/>
<path fill-rule="evenodd" clip-rule="evenodd" d="M399.95 97.321C399.95 120.44 405.935 141.266 425.3 153.294C458.168 173.709 499.963 159.943 511.935 137.316L490.605 121.318C471.073 158.231 414.392 130.035 431.108 87.1517C433.401 81.2708 435.725 77.2895 440.432 73.8115C449.305 67.2571 456.398 67.9915 466.608 67.9915C478.64 67.9915 482.453 75.4235 489.272 79.9899C492.947 79.0088 508.965 67.5598 510.602 65.325C507.716 54.5163 482.993 41.328 467.941 41.328C447.922 41.328 431.663 41.5672 415.565 58.2762C407.591 66.5526 399.95 81.4953 399.95 97.321Z" fill="white"/>
<path fill-rule="evenodd" clip-rule="evenodd" d="M98.654 157.313C98.654 79.3402 201.688 54.2037 236.43 123.524C250.476 151.549 244.941 186.344 222.311 208.979C173.625 257.678 98.654 218.308 98.654 157.313ZM87.9889 153.314C87.9889 176.513 95.0056 203.829 113.093 218.865C115.253 220.66 115.835 220.77 118.305 222.986L136.889 235.064C174.911 251.436 217.854 239.132 240.26 205.598C243.436 200.846 245.622 197.165 247.956 191.963C284.398 110.722 188.961 33.5217 118.818 89.4882C99.9613 104.533 87.9889 128.278 87.9889 153.314Z" fill="white"/>
<path fill-rule="evenodd" clip-rule="evenodd" d="M849.227 65.3249C849.227 72.3688 864.324 69.3244 883.889 69.3244V157.313C883.889 163.987 895.25 161.313 913.219 161.313V69.3244H947.881V42.6614H849.227V65.3249Z" fill="white"/>
<path fill-rule="evenodd" clip-rule="evenodd" d="M538.599 161.313H567.929V46.6609C567.929 43.5889 567.001 42.6614 563.929 42.6614H538.599V161.313Z" fill="white"/>
<path fill-rule="evenodd" clip-rule="evenodd" d="M255.968 15.998C255.968 40.4599 254.502 39.995 282.631 39.995L301.922 39.394C313.793 37.5833 311.961 31.4472 311.961 17.331C311.961 2.17664 290.93 6.66597 266.633 6.66597C260.48 6.66597 255.968 9.61779 255.968 15.998Z" fill="white"/>
<path fill-rule="evenodd" clip-rule="evenodd" d="M885.222 246.636C885.222 234.243 888.356 222.427 900.079 217.497C912.146 212.423 923.499 215.38 930.937 223.585C944.397 238.433 941.336 273.299 910.553 273.299C896.311 273.299 885.222 260.697 885.222 246.636ZM875.89 245.302C875.89 279.329 917.547 292.959 938.196 270.28C958.556 247.92 943.946 205.933 912.01 206.869C890.667 207.494 875.89 222.945 875.89 245.302Z" fill="white"/>
<path fill-rule="evenodd" clip-rule="evenodd" d="M777.236 271.966C777.236 278.946 771.954 279.965 785.235 279.965V249.302H825.23V281.298H834.562V209.307H825.23V241.303H785.235V207.974H777.236V271.966Z" fill="white"/>
<path fill-rule="evenodd" clip-rule="evenodd" d="M687.914 226.638C687.914 254.872 726.575 241.844 726.575 259.967C726.575 274.865 705.856 277.609 696.878 267.001C690.593 259.574 697.241 259.967 685.247 259.967C685.703 280.406 705.797 279.965 717.243 279.965C731.689 279.965 741.92 258.114 730.743 247.801C721.24 239.034 695.913 241.61 695.913 226.638C695.913 211.964 722.623 209.847 723.909 225.305H734.574C731.168 210.684 723.112 207.974 707.911 207.974C696.813 207.974 687.914 215.931 687.914 226.638Z" fill="white"/>
<path fill-rule="evenodd" clip-rule="evenodd" d="M1010.54 247.969H995.875V215.973C1012.82 215.973 1029.2 213.146 1029.2 233.304C1029.2 242.099 1019.65 247.969 1010.54 247.969ZM987.876 279.965H995.875C995.875 251.391 993.447 254.271 1007.85 254.607C1013.64 254.742 1018.33 254.767 1022.45 253.214C1044.17 245.024 1045.6 207.974 1007.87 207.974H987.876V279.965Z" fill="white"/>
<path fill-rule="evenodd" clip-rule="evenodd" d="M394.617 229.304V231.971H643.919C643.126 229 643.608 227.971 639.92 227.971H601.258C530.939 227.971 464.912 229.304 394.617 229.304Z" fill="white"/>
<path fill-rule="evenodd" clip-rule="evenodd" d="M1074.53 231.971L1314.51 231.976C1329.37 232.074 1326.25 233.286 1329.17 229.304L1078.53 227.971C1075.38 227.971 1074.62 228.891 1074.53 231.971Z" fill="white"/>
<path fill-rule="evenodd" clip-rule="evenodd" d="M282.631 70.6578C282.631 97.8909 278.008 94.6548 307.961 94.6548C318.186 94.6548 315.96 89.054 315.96 74.6574C315.96 65.3299 284.84 69.8003 282.631 70.6578Z" fill="white"/>
<path fill-rule="evenodd" clip-rule="evenodd" d="M41.3281 30.6629C41.3281 41.6916 38.5403 38.6619 82.6561 38.6619C82.6561 23.08 87.9349 26.6634 45.3276 26.6634C42.2559 26.6634 41.3281 27.5909 41.3281 30.6629Z" fill="white"/>
</svg>
